<?xml version="1.0" encoding="utf-8"?>
<!-- Generator: Adobe Illustrator 25.4.1, SVG Export Plug-In . SVG Version: 6.00 Build 0)  -->
<svg version="1.1" id="Capa_1" xmlns="http://www.w3.org/2000/svg" xmlns:xlink="http://www.w3.org/1999/xlink" x="0px" y="0px"
	 viewBox="0 0 285.7 248.9" style="enable-background:new 0 0 285.7 248.9;" xml:space="preserve">
<style type="text/css">
	.st0{fill:#C2AF97;}
	.st1{fill:#F9B233;}
	.st2{fill:#312783;}
	.st3{fill:#FFFFFF;}
</style>
<g>
	<path d="M95.8,90.8c-1.4-0.7-2.8-1.4-4.3-2.1c-9.5-4.5-19.2-8.3-29.3-11c-4.7-1.2-9.4-1.6-14.2-1.9C37,75.1,25.9,74,15.2,70.3
		c-4.2-1.4-8.2-3.2-11.4-6.4c-1.8-1.8-3.1-3.9-3.2-6.5c-0.1-3.3,1.5-5.9,4.6-7.2c3.9-1.6,7.9-2.3,12.1-2.9c6-0.8,12.1-1.1,18.2-0.7
		c7.1,0.5,14.2,1,21.2,2.1c9.9,1.5,19.7,3.6,29.3,5.4c-1.7-1.4-3.8-3.1-5.8-4.8c-8.9-7.5-17.6-15.2-25.1-24.1
		c-2.8-3.3-5.2-7-7.6-10.6c-1.4-2.2-2.3-4.7-2.4-7.3c-0.1-3.1,1.6-5.3,4.5-6.3c3.7-1.3,7.3-0.7,10.9,0.6c3.6,1.3,6.6,3.5,9.7,5.6
		c7.9,5.4,15.3,11.5,22.5,17.9c11.3,9.9,22.2,20.3,32.9,31c0,0,0.1,0,0.3,0c-1.7-3.9-3.5-7.7-5.2-11.6c-3.2-7.5-6.4-14.9-8.3-22.8
		c-0.4-1.9-0.6-3.9-0.6-5.9c-0.1-2.9,1.4-4.9,4-6.1c2.5-1.2,4.6-0.1,6.5,1.4c3.4,2.7,6,6.2,8.5,9.7c7.4,10.5,13.6,21.8,19.7,33.1
		c3,5.6,5.8,11.4,8.8,17c0.5,1,1.5,1.8,2.5,2.5c6.5,4.5,12.9,9.3,19.7,13.4c10.6,6.4,21.4,12.6,32.3,18.5
		c9.4,5.2,19.1,9.9,28.6,14.9c4.3,2.3,8.9,3.2,13.5,4.4c8.4,2.2,16.8,4.4,25.2,6.5c1.3,0.3,1.4,1.2,1.4,2.2c0,8.5,0,17,0,25.6
		c0,14,0,28,0,42c0,2.2-0.9,2.7-2.9,1.7c-7.5-4-15-8-22.5-11.9c-2.8-1.5-5.5-2.9-8.2-4.4c-1.3-0.7-2.5-0.9-3.8-0.6
		c-7.3,1.6-14.7,2.6-22.1,3.3c-7.2,0.6-14.4,0.9-21.7,0.1c-6.5-0.7-12.9-1.6-19.4-2.4c-6.1-0.8-12.3-0.7-18.4,0.1
		c-6,0.7-12,1.5-18.1,2.3c-5.8,0.8-11.6,1.7-17.4,2.5c-2.1,0.3-4.1,0.5-6.4,0.8c0.5,0.9,1,1.6,1.5,2.4c6.4,10,12.8,20,19.2,30
		c0.7,1,0.7,1.9,0.2,3c-2.3,5-5.3,9.5-9.3,13.2c-5.5,5.2-12,8.5-19.5,9.8c-2.8,0.5-5.8,0.5-8.7,0.8c-1,0.1-1.6-0.3-2.2-1.1
		c-4.4-6.9-8.8-13.8-13.3-20.7c-4.7-7.3-9.3-14.6-14-21.9c-0.8-1.2-0.9-2.2,0-3.3c2.4-2.9,4.8-5.9,7.2-8.8c0.2-0.3,0.3-0.6,0.3-1
		c-4.8,5.2-10.6,7.7-17.4,7c-0.8,0.7-1.4,1.3-2.1,1.7c-0.8,0.5-1.6,0.8-2.5,1.2c-1.1,0.5-2,1.1-2.3,2.5c-0.3,1.2-1.2,2.5-2.6,2.9
		c-1.5,0.5-2.4,1.5-2.6,3.1c-0.1,1.1-0.7,1.9-1.7,2.5c-0.5,0.3-0.8,1.1-1.2,1.7c-0.8,1.6-1.6,3.2-3.3,4c-0.7,0.4-1,0.9-1.3,1.7
		c-0.4,1.6-1.2,3-3,3.4c-0.7,0.2-0.9,0.6-1.1,1.2c-0.5,1.9-0.7,2-2.6,2.1c-2.2,0-4.3,0-6.5,0.1c-1.2,0-1.8-0.5-2-1.6
		c-0.3-2.1-0.6-4.3-0.8-6.4c0-0.5,0.2-1.1,0.5-1.5c4.1-5.4,8.3-10.8,12.5-16.2c1.8-2.4,3.7-4.8,5.5-7.2c0.2-0.3,0.4-0.7,0.4-1.1
		c0.1-1.1,0-2.2,0.1-3.4c0.1-0.7,0.3-1.3,0.7-2c-2.3-6.5-2-12.7,2-18.6c3.9-5.8,9.6-8.5,16.6-8.5c-0.4-1.6-0.9-3.1-1.2-4.7
		c-0.8-4.1-0.9-8.2-0.4-12.3c0.8-6.7,1.8-13.5,3.1-20.1c1.7-8.5,4.9-16.3,10.2-23.2C84.3,97.8,89.4,93.6,95.8,90.8z M77.2,167.9
		c2.5,0.3,4.5-0.3,6.2-1.8c0.4-0.3,0.7-0.7,1.1-1c2.1-1.1,3.9-2.6,4.7-4.8c1-2.7,1.8-5.5,2.2-8.3c0.8-6,1.5-12.1,2-18.2
		c0.5-5.4,2.3-10.2,5.8-14.3c5.2-6.1,12-8.7,19.8-8.9c6.8-0.1,13.4,1.4,19.5,4.4c10,4.9,14.6,13.3,14.4,24.1
		c-0.1,4.8-1.3,9.4-3.3,13.8c-1.3,2.8-2.8,5.5-5.8,7c-2.1,1-4.3,2-6.5,2.6c-6.8,1.9-13.9,2.1-20.9,3c-6.4,0.7-12.8,1.6-19.2,2.4
		c-1.7,0.2-3.2,0.9-4.2,2.4c-0.6,0.8-1.3,0.8-2.1,0.2c-0.3-0.2-0.7-0.4-1-0.3c-3.2,1.3-6.1,3.1-8.3,5.8c-2,2.4-2,6.2-0.4,8.1
		c1.1-1.2,2.1-2.5,3.4-3.5c2.1-1.7,4.7-2.4,7.3-2.7c3.4-0.3,6.9-0.2,10.4-0.3c0.5,0,1.1,0.2,1.5,0.6c2.6,2,3.9,4.8,4.8,7.8
		c0.2,0.7,0.4,1.3,0.6,2c0.3-0.2,0.5-0.4,0.5-0.3c-0.1,0.8-0.1,1.8-0.2,3c2.3-0.1,4.2-0.2,6.2-0.4c0.4,0,0.9-0.5,1.3-0.7
		c0.4-0.3,0.8-0.6,1.2-0.9c0.1,0.1,0.1,0.1,0.2,0.2c-0.1,0.3-0.3,0.7-0.5,1.2c2.7-0.3,5.2-0.5,7.8-0.9c7.6-1.1,15.1-2.3,22.7-3.3
		c6.8-0.9,13.6-1.8,20.4-2.3c4.2-0.3,8.5-0.1,12.8,0.3c5.7,0.5,11.3,1.6,17,2.2c7.2,0.8,14.3,0.8,21.5,0.3
		c7.7-0.5,15.3-1.5,22.9-3.1c3-0.6,5.7-0.6,8.6,1.1c8.4,4.8,17.1,9.2,25.6,13.7c0.8,0.4,1.6,0.8,2.6,1.3c0-21.9,0-43.6,0-65.3
		c-3.7-0.9-7.4-1.9-11-2.8c-4.5-1.2-8.9-2.3-13.4-3.5c-4.8-1.3-9.7-2.4-14.2-4.8c-6.7-3.6-13.6-7-20.4-10.6
		c-5.5-2.9-10.9-5.7-16.3-8.7c-5.7-3.2-11.4-6.5-17.1-9.9c-5.1-3.1-10.3-6.1-15.2-9.5c-4.4-3-8.6-6.3-13-9.4c-0.7-0.5-1.5-1-2.3-1.1
		c-3.8-0.4-7.7-0.5-11.5-1.1c-6.4-1-12.7-2.1-19-3.6c-6.3-1.6-12.4-3.9-18.6-5.7c-6.1-1.8-12.2-3.5-18.4-5
		c-7.1-1.7-14.3-3.3-21.5-4.7c-7.7-1.6-15.5-2.8-23.4-3.3c-5-0.3-10-0.5-14.9-0.7c-1.6-0.1-3.3,0.1-5,0.2c0.1,0.4,0.1,0.7,0.2,0.9
		c0.4,2.5-1.7,6.2-3.8,6.7c-1.6,0.4-3.2,0.8-4.8,0.9c-3.1,0.3-6.2,0.2-8.8-1.7C6,56,5.2,55.3,4.2,54.4c-0.2,1.1-0.6,2-0.5,2.9
		c0.3,2.9,2.2,4.8,4.5,6.3c4.2,2.8,9,4.4,13.9,5.6c6.9,1.8,14,2.6,21.1,3.2c3.8,0.3,7.7,0.2,11.5,0.8C59.3,74,64,75,68.5,76.5
		c6,1.9,11.9,4.2,17.7,6.6c4.9,2.1,9.6,4.6,14.3,6.9c0.7,0.4,1.2,0.9,1.1,1.8c-0.2,0.9-0.8,1.2-1.6,1.3c-3.2,0.5-6.1,1.9-8.7,3.7
		c-6.6,4.5-11.1,10.6-14.3,17.8c-2.2,5-3.8,10.2-4.8,15.6c-0.4,2.2-0.7,4.5-1.1,6.7c5,1.3,6.3,3.2,6.1,8.2c-0.2,6.6-1.1,13.1-3,19.5
		c-0.3,0.9-0.2,1.5,0.6,1.9c1.7-0.6,2.2-3.4,4.8-2.5C78.7,165.4,78,166.6,77.2,167.9z M90.9,163.5c1,0.6,1.9,1.2,2.8,1.7
		c0.3,0.2,0.8,0.2,1.2,0.1c3.9-0.6,7.7-1.4,11.5-1.9c6.8-0.8,13.7-1.4,20.5-2.1c4.5-0.5,8.9-1.3,13.1-3c2.3-0.9,4.2-2.3,5.5-4.6
		c3.3-5.9,4.7-12.2,4-18.9c-0.7-6.7-4-11.9-9.6-15.5c-3.4-2.2-7.2-3.6-11.1-4.5c-6.2-1.5-12.3-2-18.4,0.4c-8,3-12.8,8.9-14,17.3
		c-0.9,6.1-1.2,12.3-2,18.5C94,155.3,93.2,159.6,90.9,163.5z M50,4.1c-1.5,0.9-2,1.9-1.8,3.5c0.3,2.6,1.4,5,2.8,7.2
		c2.6,4,5.6,7.7,8.9,11.3c5.1,5.6,10.7,10.8,16.3,15.8c4.8,4.2,9.7,8.2,14.5,12.3c1.8,1.5,3.8,2.4,6,3c8,2.2,15.9,4.6,23.9,6.9
		c4,1.2,7.9,2.4,11.9,3.5c0-0.4,0-0.6-0.1-0.7c-4.9-4.9-9.8-9.8-14.8-14.7c-6.2-6-12.4-11.9-18.7-17.7c-4.2-3.9-8.5-7.8-12.9-11.5
		c-4.2-3.6-8.6-6.9-13-10.4c-1-0.8-2.1-1.5-3.2-2.3c-0.8,2.1-2.2,3.2-4.1,3.7c-4.2,1-7.9,0-11.3-2.5C51.9,9.9,50.5,7.3,50,4.1z
		 M116.5,12.9c-0.1-0.1-0.2-0.1-0.4-0.2c-0.4,0.7-1.1,1.4-1.1,2.1c-0.1,1.6-0.1,3.3,0.1,4.9c1,5.9,3.2,11.4,5.5,16.9
		c3.5,8.3,7.3,16.5,11,24.8c0.2,0.5,0.5,1.1,0.9,1.5c1.6,1.7,3.3,3.4,5,5c0.4,0.4,0.9,0.7,1.4,0.8c3.9,0.6,7.9,1.1,11.8,1.6
		c1.5,0.2,3.1,0.2,5,0.3c-8.7-17.1-17.4-33.9-28.3-49.4C120.6,23.2,116.6,18.8,116.5,12.9z M80.6,192.9c-4.9-1.2-8.1-4.4-10.2-8.6
		c-0.5-0.9-0.6-2-0.9-2.9c-0.2-0.6-0.3-1.3-0.8-1.7c-2.7-2.6-1.5-6.9,0.7-8.5c1.1-0.8,2.4-1.3,3.6-1.9c-0.5-0.6-1.1-1.3-1.8-2
		c-0.2-0.2-0.5-0.3-0.7-0.3c-4.2-0.6-8.1-0.1-11.6,2.5c-2.4,1.8-4.6,3.9-5.7,6.6c-2,4.9-2.3,10,0.6,14.8c0.8,1.3,1.8,2.5,2.8,3.7
		c2.4,2.6,5.5,3.8,8.9,4.5c3.5,0.8,6.7-0.4,9.8-1.7C77.4,196.3,79.1,194.8,80.6,192.9z M98.7,191.1c2.3,0,4.5,0,6.7,0
		c0.7,0,1-0.4,0.9-1.1c-0.6-3.1-1.5-6.1-3.6-8.5c-0.5-0.6-1.4-1-2.1-1.1c-1.7-0.1-3.4-0.1-5.1,0.1c-2.4,0.3-4.7,0.7-7,1.3
		c-1.7,0.5-3.3,1.4-4.2,3.2c-0.7,1.5-0.5,2.4,1,3.2c0.9,0.5,1.8,0.8,2.7,1.2c0.7,0.4,1.2,0.1,1.7-0.4c1-1.1,2.1-2.2,3.2-3.3
		c0.3-0.3,0.7-0.6,1-0.9c0.1,0.1,0.1,0.1,0.2,0.2c-1.1,1.7-2.2,3.4-3.4,5.3c1.9,0.3,3.7,0.4,5.5,0.8c1,0.2,1.6-0.1,2.2-0.8
		c0.5-0.6,1-1.1,1.5-1.7c0.1,0.1,0.2,0.1,0.2,0.2C99.7,189.6,99.2,190.3,98.7,191.1z M39.3,226.9c0.1-0.2,0.1-0.3,0.1-0.4
		c0.2-1.6,0.9-2.6,2.7-2.7c0.4,0,1.1-1,1.1-1.5c0-1.5,0.8-2.3,2-2.8c0.3-0.2,0.8-0.6,0.8-0.8c-0.1-1.3,1.2-1.3,1.7-2
		c0.6-0.7,0.2-2,1.3-2.5c0.1,0,0.2-0.1,0.3-0.2c0.7-0.4,1.2-0.9,1.3-1.8c0.3-1.9,1-3.5,3.1-4.1c1.4-0.4,2.1-1.4,2.3-2.8
		c0.1-1.2,0.9-1.8,1.8-2.2c1.1-0.5,2.2-1.1,3.4-1.7c-1.4-0.8-2.7-1.5-4-2.2c-0.3,0.4-0.6,0.7-0.9,1.1c-4.1,5.4-8.2,10.7-12.3,16.1
		c-0.9,1.2-2.6,2.2-2,4.2c0,0.1-0.1,0.4-0.2,0.5c-0.4,0.5-0.9,1-1.4,1.5c-1.4,1.4-2.8,2.8-4.3,4.4C37.6,226.9,38.4,226.9,39.3,226.9
		z M71.4,162.6c0.2-0.5,0.3-0.7,0.3-0.8c1.6-5.9,2.2-11.9,2.4-17.9c0.1-2.3-1-3.4-3.6-3.9C69.6,147.5,68.7,154.9,71.4,162.6z
		 M53,3.2c0.1,0.7,0.2,1.2,0.3,1.8c1,4,5.2,6.4,8.7,6.5c1.4,0.1,2.8,0.2,4-0.7c1.3-0.9,1.3-2.2,0.1-2.9C64,6.7,62,5.5,59.8,4.5
		C57.7,3.6,55.5,3,53,3.2z M6.9,52.5c1.3,1.6,2.7,2.4,4.4,2.7c2.6,0.5,5.1,0.1,7.6-0.6c1.3-0.3,2.4-2,2.4-3.4c0-1-0.3-1.5-1.4-1.3
		c-1.6,0.3-3.2,0.4-4.7,0.7C12.5,51.2,9.8,51.9,6.9,52.5z M131.1,232.3c0.1,0.1,0.2,0.2,0.2,0.3c-5,4.8-10.1,9.6-15.1,14.3
		c0.3,0.2,0.5,0.3,0.6,0.2c2.2-0.9,4.4-1.7,6.5-2.7c0.4-0.2,0.7-0.6,0.9-0.9c1.6-2.6,3.2-5.2,4.7-7.7
		C129.6,234.7,130.4,233.5,131.1,232.3z M105.9,248.9c1.1-0.1,2-0.2,2.9-0.2c1.2,0,1.9-0.5,2.5-1.4c2.5-3.5,5.1-6.9,7.7-10.4
		c0.9-1.2,1.8-2.5,2.6-3.6C116.5,238.4,111.3,243.6,105.9,248.9z M100.2,241c4-5.3,7.9-10.5,11.7-15.5c-4.4,4.2-8.8,8.6-13.3,13
		C99.1,239.4,99.6,240.1,100.2,241z M108.7,219.7c-4.6,4.5-9.1,9-13.7,13.4c0.5,0.8,1,1.6,1.6,2.5
		C100.7,230.3,104.7,225,108.7,219.7z M97.1,205c-4,3.8-8.3,7.9-12.5,11.9c0.6,0.9,1.1,1.6,1.7,2.5C90.1,214.4,93.7,209.6,97.1,205z
		 M105.8,208.5c2.4-2.3,5-4.8,7.6-7.3c1.9-1.8,3.8-3.6,5.6-5.4c0.2-0.2,0.6-0.8,0.5-1c-0.4-0.7-0.9-1.4-1.4-2.2
		C113.8,198.2,109.7,203.5,105.8,208.5z M132,214.3c-4.2,5.4-8.3,10.7-12.4,16.1c1.6-1.3,3-2.8,4.5-4.2c3-3,6-5.9,8.9-8.9
		c0.2-0.2,0.4-0.8,0.3-1.1C132.9,215.6,132.4,215,132,214.3z M104.2,215.6c-0.1-0.1-0.1-0.1-0.2-0.2c-4.1,4.1-8.2,8.2-12.4,12.4
		c0.4,0.7,0.9,1.4,1.5,2.4C97,225.2,100.6,220.4,104.2,215.6z M103.6,246.3c4-5.2,7.9-10.3,11.8-15.3c0,0-0.1-0.1-0.1-0.1
		c-4.4,4.4-8.7,8.8-13.1,13.3C102.5,244.8,103,245.5,103.6,246.3z M101.3,209.5c0,0-0.1-0.1-0.1-0.1c-4.3,4.3-8.6,8.6-12.9,13
		c0.4,0.7,0.9,1.4,1.5,2.2C93.6,219.5,97.4,214.5,101.3,209.5z M113.5,218.5C113.5,218.5,113.6,218.5,113.5,218.5
		c1.6-1.4,3-2.8,4.5-4.2c2.7-2.6,5.3-5.2,8-7.8c0.2-0.2,0.5-0.7,0.4-1c-0.3-0.7-0.8-1.3-1.3-2C121.1,208.6,117.3,213.5,113.5,218.5z
		 M109.9,213.2c0.1,0.1,0.2,0.2,0.3,0.3c4.1-4.5,8.3-8.9,12.4-13.4c0.1,0.1,0.3,0.2,0.4,0.4c-0.5-0.8-1-1.5-1.5-2.4
		C117.6,203.2,113.8,208.2,109.9,213.2z M117.2,223.6c0,0,0.1,0,0.1,0c4.2-4.1,8.5-8.2,12.8-12.3c-0.5-0.7-1.1-1.5-1.6-2.4
		C124.6,213.9,120.9,218.7,117.2,223.6z M127.1,231.4c0.1,0.1,0.2,0.2,0.3,0.3c2.6-2.6,5.1-5.3,7.7-7.9c1.9-2,2.1-1.2,0.4-3.8
		c0-0.1-0.1-0.1-0.3-0.2C132.6,223.7,129.4,227.2,127.1,231.4z M82.8,214c2.3-3.2,4.8-6.2,6.2-9.9c-2.5,2.6-5,5.1-7.5,7.7
		C81.8,212.4,82.2,213.1,82.8,214z M94.4,193.9c-0.8-0.1-1.5-0.2-2.2-0.4c-0.8-0.2-1.2,0-1.5,0.7c-0.4,0.9-0.9,1.7-1.4,2.5
		c-0.9,1.6-1.8,3.1-2.6,4.7c0.1,0,0.1,0.1,0.2,0.1C89.3,199.1,91.8,196.6,94.4,193.9z M120,12.8c-0.8,3.7,2.3,6.7,5.6,5.6
		C123.6,16.4,121.8,14.6,120,12.8z M133.2,234.5c0.1,0.1,0.2,0.2,0.3,0.2c2-2.4,4.7-4.1,6-7.2c0.4-1,0.3-1.6-0.5-2.2
		C136.9,228.4,135,231.5,133.2,234.5z M79.4,208.2c1.5-2.5,2.9-5.1,4.5-7.8c-1.8,1.7-3.5,3.2-5,4.8
		C77.8,206.4,77.9,206.7,79.4,208.2z M103.9,201.5c2.7-2.7,5.4-5.3,8-7.9c-1.2-0.2-2.2,0-2.9,1.3c-0.2,0.5-0.6,0.8-0.9,1.2
		C106.7,197.8,105.3,199.6,103.9,201.5z M102.6,194.5c-0.1-0.1-0.1-0.2-0.2-0.4c-0.6,0.2-1.4,0.2-1.7,0.5c-1.6,2-3.1,4.1-4.2,5.5
		C98.2,198.6,100.4,196.5,102.6,194.5z M44,211.1c-0.1-0.1-0.2-0.1-0.3-0.2c-3.4,4.4-6.8,8.8-10.2,13.2c0.1,0.1,0.2,0.2,0.3,0.3
		C37.2,220,40.6,215.6,44,211.1z M77.5,171.3c0.5,0.9,1,1.7,1.5,2.5c0.4-0.4,0.8-0.9,1.2-1.3C79.5,171.6,78.9,170.7,77.5,171.3z
		 M75.7,174.4c-0.1,0-0.2,0-0.3,0c-0.2,1.1-0.4,2.2-0.6,3.5C76.2,176.7,76.3,175.9,75.7,174.4z M76.7,183.2c0.1,0,0.2-0.1,0.3-0.1
		c-0.1-0.9-0.2-1.8-0.3-2.8c-0.5,0.3-0.8,0.5-1.2,0.7C76,181.8,76.4,182.5,76.7,183.2z M52.5,194.5c0,1,0,1.9,0,2.9
		c0.5-0.6,0.8-1,1.2-1.5C53.3,195.5,52.9,195.1,52.5,194.5z"/>
	<path class="st0" d="M77.2,167.9c0.8-1.4,1.6-2.6,2.4-3.9c-2.7-0.9-3.1,2-4.8,2.5c-0.8-0.4-0.9-1-0.6-1.9c2-6.3,2.8-12.8,3-19.5
		c0.2-5-1.2-6.9-6.1-8.2c0.4-2.2,0.7-4.4,1.1-6.7c1-5.4,2.6-10.6,4.8-15.6c3.2-7.2,7.7-13.3,14.3-17.8c2.6-1.8,5.5-3.3,8.7-3.7
		c0.8-0.1,1.5-0.4,1.6-1.3c0.2-0.9-0.3-1.5-1.1-1.8c-4.8-2.3-9.4-4.9-14.3-6.9c-5.8-2.4-11.7-4.7-17.7-6.6C64,75,59.3,74,54.7,73.3
		c-3.8-0.6-7.6-0.5-11.5-0.8C36.1,71.9,29,71,22.1,69.3c-4.9-1.2-9.7-2.8-13.9-5.6c-2.3-1.5-4.2-3.4-4.5-6.3
		c-0.1-0.9,0.3-1.8,0.5-2.9c1,0.9,1.7,1.6,2.6,2.2c2.7,1.9,5.8,2,8.8,1.7c1.6-0.2,3.2-0.5,4.8-0.9c2.1-0.6,4.2-4.3,3.8-6.7
		c0-0.2-0.1-0.5-0.2-0.9c1.7-0.1,3.4-0.3,5-0.2c5,0.2,10,0.4,14.9,0.7c7.9,0.5,15.7,1.8,23.4,3.3c7.2,1.5,14.3,3,21.5,4.7
		c6.2,1.5,12.3,3.2,18.4,5c6.2,1.8,12.3,4.1,18.6,5.7c6.2,1.6,12.6,2.6,19,3.6c3.8,0.6,7.7,0.7,11.5,1.1c0.8,0.1,1.6,0.6,2.3,1.1
		c4.3,3.1,8.5,6.4,13,9.4c5,3.3,10.1,6.4,15.2,9.5c5.6,3.4,11.3,6.7,17.1,9.9c5.4,3,10.9,5.9,16.3,8.7c6.8,3.5,13.7,6.9,20.4,10.6
		c4.5,2.4,9.4,3.5,14.2,4.8c4.5,1.2,8.9,2.4,13.4,3.5c3.7,0.9,7.3,1.9,11,2.8c0,21.8,0,43.4,0,65.3c-1-0.5-1.8-0.9-2.6-1.3
		c-8.6-4.5-17.2-9-25.6-13.7c-2.9-1.7-5.6-1.7-8.6-1.1c-7.5,1.6-15.2,2.5-22.9,3.1c-7.2,0.5-14.4,0.5-21.5-0.3
		c-5.7-0.6-11.3-1.6-17-2.2c-4.2-0.4-8.5-0.6-12.8-0.3c-6.8,0.5-13.6,1.4-20.4,2.3c-7.6,1-15.2,2.2-22.7,3.3
		c-2.5,0.4-5.1,0.6-7.8,0.9c0.2-0.5,0.3-0.8,0.5-1.2c-0.1-0.1-0.1-0.1-0.2-0.2c-0.4,0.3-0.8,0.6-1.2,0.9c-0.4,0.3-0.8,0.7-1.3,0.7
		c-1.9,0.2-3.9,0.3-6.2,0.4c0.1-1.1,0.2-2.1,0.2-3c0,0-0.2,0.1-0.5,0.3c-0.2-0.7-0.4-1.4-0.6-2c-1-3-2.3-5.8-4.8-7.8
		c-0.4-0.3-1-0.6-1.5-0.6c-3.5,0-6.9,0-10.4,0.3c-2.6,0.2-5.2,1-7.3,2.7c-1.3,1-2.3,2.4-3.4,3.5c-1.6-1.8-1.6-5.7,0.4-8.1
		c2.2-2.7,5.1-4.5,8.3-5.8c0.3-0.1,0.7,0.1,1,0.3c0.8,0.6,1.5,0.6,2.1-0.2c1-1.5,2.5-2.1,4.2-2.4c6.4-0.8,12.8-1.7,19.2-2.4
		c7-0.8,14.1-1.1,20.9-3c2.2-0.6,4.4-1.6,6.5-2.6c2.9-1.4,4.5-4.1,5.8-7c2-4.4,3.2-9,3.3-13.8c0.2-10.7-4.3-19.2-14.4-24.1
		c-6.2-3-12.7-4.5-19.5-4.4c-7.8,0.1-14.6,2.8-19.8,8.9c-3.5,4.1-5.3,8.9-5.8,14.3c-0.5,6.1-1.1,12.2-2,18.2
		c-0.4,2.8-1.2,5.6-2.2,8.3c-0.8,2.2-2.6,3.7-4.7,4.8c-0.4,0.2-0.7,0.6-1.1,1C81.7,167.6,79.7,168.3,77.2,167.9z M98,171
		c-1.1,1.7-2.2,3.3-3.3,5c0.1,0.1,0.2,0.2,0.3,0.4c0.5-0.3,1.1-0.4,1.5-0.8c0.7-0.6,1.3-1.3,1.9-2C99.2,172.6,99.1,172,98,171z"/>
	<path class="st0" d="M50,4.1c0.5,3.2,1.9,5.8,4.4,7.7c3.4,2.5,7.1,3.5,11.3,2.5c1.9-0.5,3.4-1.6,4.1-3.7c1.1,0.8,2.2,1.5,3.2,2.3
		c4.4,3.4,8.8,6.8,13,10.4c4.4,3.7,8.7,7.5,12.9,11.5c6.3,5.8,12.5,11.7,18.7,17.7c5,4.8,9.9,9.8,14.8,14.7c0.1,0.1,0.2,0.3,0.1,0.7
		c-4-1.2-7.9-2.4-11.9-3.5c-7.9-2.3-15.9-4.7-23.9-6.9c-2.2-0.6-4.2-1.5-6-3C85.9,50,81,46.1,76.2,41.9c-5.7-5-11.2-10.2-16.3-15.8
		c-3.2-3.6-6.3-7.2-8.9-11.3c-1.4-2.2-2.5-4.5-2.8-7.2C48,5.9,48.5,5,50,4.1z"/>
	<path class="st0" d="M116.5,12.9c0.1,5.9,4.1,10.3,11,8.3c10.9,15.5,19.5,32.3,28.3,49.4c-1.8-0.1-3.4-0.1-5-0.3
		c-4-0.5-7.9-1-11.8-1.6c-0.5-0.1-1-0.4-1.4-0.8c-1.7-1.6-3.3-3.3-5-5c-0.4-0.4-0.7-1-0.9-1.5c-3.7-8.3-7.5-16.5-11-24.8
		c-2.3-5.5-4.5-11-5.5-16.9c-0.3-1.6-0.3-3.2-0.1-4.9c0.1-0.7,0.7-1.4,1.1-2.1C116.3,12.8,116.4,12.8,116.5,12.9z"/>
	<path class="st1" d="M80.6,192.9c-1.5,1.9-3.2,3.4-5.4,4.3c-3.1,1.4-6.3,2.5-9.8,1.7c-3.3-0.7-6.5-1.9-8.9-4.5
		c-1-1.1-2-2.4-2.8-3.7c-2.9-4.8-2.7-9.8-0.6-14.8c1.1-2.7,3.3-4.8,5.7-6.6c3.5-2.6,7.4-3.1,11.6-2.5c0.3,0,0.6,0.1,0.7,0.3
		c0.7,0.7,1.3,1.4,1.8,2c-1.2,0.7-2.5,1.1-3.6,1.9c-2.3,1.6-3.4,6-0.7,8.5c0.4,0.4,0.6,1.1,0.8,1.7c0.3,1,0.5,2,0.9,2.9
		C72.5,188.5,75.7,191.6,80.6,192.9z"/>
	<path class="st2" d="M98.7,191.1c0.5-0.8,0.9-1.6,1.4-2.3c-0.1-0.1-0.2-0.1-0.2-0.2c-0.5,0.6-1.1,1.1-1.5,1.7
		c-0.6,0.7-1.2,1-2.2,0.8c-1.7-0.3-3.5-0.5-5.5-0.8c1.2-1.9,2.3-3.6,3.4-5.3c-0.1-0.1-0.1-0.1-0.2-0.2c-0.3,0.3-0.7,0.6-1,0.9
		c-1.1,1.1-2.1,2.2-3.2,3.3c-0.5,0.5-1,0.8-1.7,0.4c-0.9-0.4-1.8-0.8-2.7-1.2c-1.5-0.8-1.8-1.7-1-3.2c0.9-1.8,2.4-2.7,4.2-3.2
		c2.3-0.6,4.7-1,7-1.3c1.7-0.2,3.4-0.2,5.1-0.1c0.7,0.1,1.6,0.5,2.1,1.1c2.1,2.4,3,5.4,3.6,8.5c0.1,0.7-0.2,1.1-0.9,1.1
		C103.3,191.1,101.1,191.1,98.7,191.1z"/>
	<path class="st1" d="M39.3,226.9c-0.8,0-1.7,0-2.9,0c1.6-1.6,2.9-3,4.3-4.4c0.5-0.5,0.9-1,1.4-1.5c0.1-0.1,0.2-0.4,0.2-0.5
		c-0.7-2,1-3,2-4.2c4-5.4,8.2-10.7,12.3-16.1c0.3-0.3,0.6-0.7,0.9-1.1c1.3,0.7,2.6,1.4,4,2.2c-1.2,0.6-2.3,1.2-3.4,1.7
		c-1,0.5-1.7,1-1.8,2.2c-0.2,1.4-0.9,2.4-2.3,2.8c-2.1,0.6-2.8,2.2-3.1,4.1c-0.1,0.9-0.6,1.4-1.3,1.8c-0.1,0.1-0.2,0.1-0.3,0.2
		c-1.2,0.5-0.8,1.8-1.3,2.5c-0.5,0.7-1.8,0.7-1.7,2c0,0.3-0.5,0.7-0.8,0.8c-1.2,0.6-1.9,1.4-2,2.8c0,0.5-0.7,1.5-1.1,1.5
		c-1.8,0.1-2.5,1.2-2.7,2.7C39.4,226.6,39.3,226.8,39.3,226.9z"/>
	<path class="st2" d="M71.4,162.6c-2.8-7.7-1.9-15.1-0.8-22.6c2.6,0.5,3.6,1.6,3.6,3.9c-0.1,6.1-0.8,12.1-2.4,17.9
		C71.7,162,71.6,162.1,71.4,162.6z"/>
	<path class="st2" d="M53,3.2c2.5-0.2,4.7,0.4,6.8,1.3c2.2,1,4.2,2.2,6.3,3.4c1.3,0.7,1.2,2-0.1,2.9c-1.2,0.9-2.7,0.7-4,0.7
		C58.5,11.3,54.3,9,53.3,5C53.2,4.5,53.1,3.9,53,3.2z"/>
	<path class="st2" d="M6.9,52.5c2.9-0.7,5.6-1.3,8.2-1.8c1.6-0.3,3.2-0.4,4.7-0.7c1.1-0.2,1.4,0.3,1.4,1.3c0,1.3-1.2,3-2.4,3.4
		c-2.5,0.7-5,1-7.6,0.6C9.6,54.9,8.2,54.1,6.9,52.5z"/>
	<path class="st3" d="M131.1,232.3c-0.7,1.2-1.4,2.3-2.1,3.5c-1.6,2.6-3.2,5.2-4.7,7.7c-0.2,0.4-0.5,0.8-0.9,0.9
		c-2.1,0.9-4.3,1.8-6.5,2.7c-0.1,0.1-0.3,0-0.6-0.2c5-4.8,10.1-9.6,15.1-14.3C131.2,232.5,131.2,232.4,131.1,232.3z"/>
	<path class="st3" d="M105.9,248.9c5.4-5.4,10.6-10.5,15.7-15.6c-0.8,1.1-1.7,2.3-2.6,3.6c-2.6,3.5-5.2,6.9-7.7,10.4
		c-0.7,0.9-1.4,1.5-2.5,1.4C107.9,248.8,107,248.9,105.9,248.9z"/>
	<path class="st3" d="M100.2,241c-0.6-0.9-1.1-1.7-1.7-2.5c4.5-4.4,9-8.7,13.3-13C108.1,230.6,104.2,235.7,100.2,241z"/>
	<path class="st3" d="M108.7,219.7c-4.1,5.3-8,10.6-12.1,15.9c-0.6-0.9-1.1-1.6-1.6-2.5C99.6,228.6,104.1,224.2,108.7,219.7z"/>
	<path class="st3" d="M97.1,205c-3.4,4.6-7.1,9.4-10.8,14.4c-0.6-0.9-1.1-1.6-1.7-2.5C88.9,212.9,93.1,208.8,97.1,205z"/>
	<path class="st3" d="M105.8,208.5c3.9-5,8-10.3,12.3-15.8c0.5,0.8,1.1,1.4,1.4,2.2c0.1,0.2-0.2,0.7-0.5,1c-1.9,1.8-3.7,3.6-5.6,5.4
		C110.8,203.7,108.2,206.2,105.8,208.5z"/>
	<path class="st3" d="M132,214.3c0.5,0.7,1,1.3,1.3,1.9c0.1,0.3-0.1,0.8-0.3,1.1c-2.9,3-5.9,5.9-8.9,8.9c-1.4,1.4-2.9,2.9-4.5,4.2
		C123.6,225.1,127.8,219.8,132,214.3z"/>
	<path class="st3" d="M104.2,215.6c-3.6,4.8-7.3,9.6-11,14.6c-0.6-0.9-1.1-1.7-1.5-2.4c4.2-4.2,8.3-8.3,12.4-12.4
		C104.1,215.5,104.2,215.5,104.2,215.6z"/>
	<path class="st3" d="M103.6,246.3c-0.5-0.8-1-1.5-1.4-2.1c4.4-4.5,8.8-8.9,13.1-13.3c0,0,0.1,0.1,0.1,0.1
		C111.5,236,107.5,241.1,103.6,246.3z"/>
	<path class="st3" d="M101.3,209.5c-3.8,5-7.7,10-11.6,15.1c-0.5-0.8-1-1.5-1.5-2.2c4.3-4.4,8.6-8.7,12.9-13
		C101.2,209.5,101.2,209.5,101.3,209.5z"/>
	<path class="st3" d="M113.5,218.5c3.8-4.9,7.6-9.9,11.5-15c0.5,0.7,1,1.3,1.3,2c0.1,0.2-0.1,0.7-0.4,1c-2.6,2.6-5.3,5.2-8,7.8
		C116.5,215.7,115.1,217.1,113.5,218.5C113.6,218.5,113.5,218.5,113.5,218.5z"/>
	<path class="st3" d="M109.9,213.2c3.8-5,7.7-10,11.6-15.1c0.5,0.8,1,1.6,1.5,2.4c-0.1-0.1-0.3-0.2-0.4-0.4
		c-4.1,4.5-8.3,8.9-12.4,13.4C110.2,213.4,110.1,213.3,109.9,213.2z"/>
	<path class="st3" d="M117.2,223.6c3.7-4.8,7.4-9.7,11.2-14.6c0.6,0.9,1.1,1.6,1.6,2.4c-4.3,4.1-8.5,8.2-12.8,12.3
		C117.3,223.6,117.2,223.6,117.2,223.6z"/>
	<path class="st3" d="M127.1,231.4c2.3-4.2,5.5-7.6,8.1-11.5c0.2,0.1,0.3,0.1,0.3,0.2c1.7,2.6,1.6,1.8-0.4,3.8
		c-2.6,2.6-5.1,5.2-7.7,7.9C127.4,231.6,127.3,231.5,127.1,231.4z"/>
	<path class="st3" d="M82.8,214c-0.6-0.9-1-1.6-1.3-2.2c2.5-2.6,5-5.1,7.5-7.7C87.6,207.8,85.1,210.7,82.8,214z"/>
	<path class="st3" d="M94.4,193.9c-2.6,2.6-5.1,5.1-7.6,7.6c-0.1,0-0.1-0.1-0.2-0.1c0.9-1.6,1.8-3.1,2.6-4.7c0.5-0.8,1-1.6,1.4-2.5
		c0.3-0.7,0.8-0.9,1.5-0.7C92.9,193.8,93.6,193.8,94.4,193.9z"/>
	<path class="st2" d="M120,12.8c1.8,1.8,3.6,3.6,5.6,5.6C122.3,19.5,119.2,16.5,120,12.8z"/>
	<path class="st3" d="M133.2,234.5c1.9-3,3.8-6.1,5.7-9.2c0.8,0.7,0.9,1.3,0.5,2.2c-1.2,3.1-3.9,4.8-6,7.2
		C133.3,234.7,133.2,234.6,133.2,234.5z"/>
	<path class="st3" d="M79.4,208.2c-1.5-1.5-1.6-1.8-0.5-3c1.5-1.6,3.2-3.1,5-4.8C82.3,203.2,80.8,205.7,79.4,208.2z"/>
	<path class="st3" d="M103.9,201.5c1.4-1.8,2.8-3.6,4.2-5.4c0.3-0.4,0.7-0.8,0.9-1.2c0.6-1.2,1.7-1.5,2.9-1.3
		C109.2,196.2,106.6,198.8,103.9,201.5z"/>
	<path class="st3" d="M102.6,194.5c-2.2,2.1-4.4,4.1-6.1,5.7c1.1-1.4,2.6-3.5,4.2-5.5c0.3-0.4,1.1-0.4,1.7-0.5
		C102.5,194.2,102.6,194.3,102.6,194.5z"/>
	<path class="st1" d="M44,211.1c-3.4,4.4-6.8,8.9-10.2,13.3c-0.1-0.1-0.2-0.2-0.3-0.3c3.4-4.4,6.8-8.8,10.2-13.2
		C43.8,211,43.9,211.1,44,211.1z"/>
	<path class="st3" d="M77.5,171.3c1.3-0.5,1.9,0.3,2.7,1.2c-0.4,0.4-0.8,0.8-1.2,1.3C78.5,173,78.1,172.2,77.5,171.3z"/>
	<path class="st3" d="M75.7,174.4c0.6,1.5,0.4,2.3-1,3.5c0.2-1.3,0.4-2.4,0.6-3.5C75.5,174.4,75.6,174.4,75.7,174.4z"/>
	<path class="st3" d="M76.7,183.2c-0.4-0.7-0.8-1.4-1.2-2.2c0.4-0.3,0.8-0.5,1.2-0.7c0.1,1,0.2,1.9,0.3,2.8
		C77,183.1,76.9,183.2,76.7,183.2z"/>
	<path class="st1" d="M52.5,194.5c0.5,0.5,0.8,1,1.2,1.4c-0.4,0.5-0.7,0.9-1.2,1.5C52.5,196.4,52.5,195.5,52.5,194.5z"/>
	<path d="M98,171c1.1,1,1.2,1.6,0.4,2.5c-0.6,0.7-1.2,1.4-1.9,2c-0.4,0.4-1,0.5-1.5,0.8c-0.1-0.1-0.2-0.2-0.3-0.4
		C95.8,174.3,96.9,172.6,98,171z"/>
</g>
</svg>
